<svg xmlns="http://www.w3.org/2000/svg" xmlns:xlink="http://www.w3.org/1999/xlink" width="1080" zoomAndPan="magnify" viewBox="0 0 810 809.999993" height="1080" preserveAspectRatio="xMidYMid meet" version="1.0"><defs><g/><clipPath id="0ba4bcd727"><path d="M 67.71875 67.71875 L 742.28125 67.71875 L 742.28125 742.28125 L 67.71875 742.28125 Z M 67.71875 67.71875 " clip-rule="nonzero"/></clipPath><clipPath id="742c7c97ac"><path d="M 405 67.71875 C 218.722656 67.71875 67.71875 218.722656 67.71875 405 C 67.71875 591.277344 218.722656 742.28125 405 742.28125 C 591.277344 742.28125 742.28125 591.277344 742.28125 405 C 742.28125 218.722656 591.277344 67.71875 405 67.71875 Z M 405 67.71875 " clip-rule="nonzero"/></clipPath></defs><g clip-path="url(#0ba4bcd727)"><g clip-path="url(#742c7c97ac)"><path fill="#000000" d="M 67.71875 67.71875 L 742.28125 67.71875 L 742.28125 742.28125 L 67.71875 742.28125 Z M 67.71875 67.71875 " fill-opacity="1" fill-rule="nonzero"/></g></g><g fill="#ffffff" fill-opacity="1"><g transform="translate(137.885769, 618.135238)"><g><path d="M 362.984375 0 L 177.640625 -214.203125 L 177.640625 0 L 47.453125 0 L 47.453125 -441.234375 L 171.234375 -441.234375 L 356.578125 -223.828125 L 356.578125 -441.234375 L 486.765625 -441.234375 L 486.765625 0 Z M 362.984375 0 "/></g></g></g></svg>